<svg id="Layer_1" data-name="Layer 1" xmlns="http://www.w3.org/2000/svg" viewBox="0 0 64 64"><defs><style>.cls-1,.cls-2{fill:none;stroke:#fff;stroke-linecap:round;}.cls-1{stroke-miterlimit:10;}.cls-2{stroke-linejoin:round;}</style></defs><title>48V Hybrid-64-01</title><path class="cls-1" d="M6.4,58.78S1,58,1,54.88s-.33-5.72,2-7.7,6.46-3.24,13.25-3.24c0,0,9.69-6.62,14.67-7.78S48.66,34.5,55.7,37.48L59,37.4l-1.4,2s5.13,2.73,5,10.27c0,0,1.91,5.72-3.31,7.71"/><path class="cls-1" d="M20,56a7,7,0,1,1-7-7A7,7,0,0,1,20,56Z"/><path class="cls-1" d="M59.51,56a7,7,0,1,1-7-7A7,7,0,0,1,59.51,56Z"/><line class="cls-1" x1="19.58" y1="58.94" x2="46.01" y2="58.78"/><polygon class="cls-2" points="36.4 39.63 41.27 39.63 36.14 44.31 42 44.31 32.97 54.3 37.39 46.52 31.66 46.52 36.4 39.63"/></svg>